# xmcd
#
# Track frame offsets:
# 150
# 19500
# 34175
# 43635
# 57457
# 75555
# 89127
# 102647
#
# Disc length: 1530 seconds
#
# Revision: 1
# Processed by: cddbd v1.5.2PL0 Copyright (c) Steve Scherf et al.
# Submitted via: CedeCatalogueitor 2.6.0.6 http://personales.ya.com/cdcatalogueitor
#
DISCID=6505f808
DTITLE=THE WORLD COMPANY - BALADAS INOLVIDABLES
DYEAR=1999
DGENRE=
TTITLE0=Noche De Blanco Satén
TTITLE1=NO ME QUIERAS TANTO
TTITLE2=CUANDO SALÍ DE CUBA
TTITLE3=VALLA POR DIOS 
TTITLE4=EUROPA
TTITLE5=LET IT BE (DÉJALO ASÍ)
TTITLE6=MELANCOLIE
TTITLE7=LA CHICA DE IPANEMA
EXTD=
EXTT0=
EXTT1=
EXTT2=
EXTT3=
EXTT4=
EXTT5=
EXTT6=
EXTT7=
PLAYORDER=
